<svg width="83" height="83" viewBox="0 0 83 83" version="1.1" xmlns="http://www.w3.org/2000/svg" xmlns:xlink="http://www.w3.org/1999/xlink">
<title>logo</title>
<desc>Created using Figma</desc>
<g id="Canvas" transform="translate(1217 507)">
<g id="logo">
<g id="Rectangle">
<use xlink:href="#path0_fill" transform="translate(-1217 -507)" fill="#5F4B8B"/>
</g>
<g id="JORDAS">
<use xlink:href="#path1_fill" transform="translate(-1205.31 -478.345)" fill="#ECDEFF"/>
<use xlink:href="#path2_fill" transform="translate(-1205.31 -478.345)" fill="#ECDEFF"/>
<use xlink:href="#path3_fill" transform="translate(-1205.31 -478.345)" fill="#ECDEFF"/>
<use xlink:href="#path4_fill" transform="translate(-1205.31 -478.345)" fill="#ECDEFF"/>
<use xlink:href="#path5_fill" transform="translate(-1205.31 -478.345)" fill="#ECDEFF"/>
<use xlink:href="#path6_fill" transform="translate(-1205.31 -478.345)" fill="#ECDEFF"/>
</g>
</g>
</g>
<defs>
<path id="path0_fill" d="M 0 0L 82.9956 0L 82.9956 83L 0 83L 0 0Z"/>
<path id="path1_fill" d="M 14.7513 17.8346C 14.7513 19.1976 14.4263 20.4453 13.7763 21.5777C 13.1263 22.6891 12.2351 23.5698 11.1028 24.2199C 9.99147 24.8699 8.75433 25.1949 7.39138 25.1949C 6.00746 25.1949 4.74936 24.8699 3.61706 24.2199C 2.50573 23.5698 1.62506 22.6891 0.975033 21.5777C 0.325011 20.4453 0 19.1976 0 17.8346C 0 17.4781 0.115327 17.1846 0.34598 16.9539C 0.576633 16.7232 0.870191 16.6079 1.22665 16.6079C 1.58312 16.6079 1.87668 16.7232 2.10733 16.9539C 2.33798 17.1846 2.45331 17.4781 2.45331 17.8346C 2.45331 18.7783 2.67348 19.638 3.11382 20.4139C 3.55415 21.1688 4.15175 21.7664 4.90662 22.2068C 5.66148 22.6471 6.48974 22.8673 7.39138 22.8673C 8.29303 22.8673 9.12128 22.6471 9.87614 22.2068C 10.631 21.7454 11.2181 21.1373 11.6375 20.3824C 12.0778 19.6066 12.298 18.7573 12.298 17.8346L 12.298 1.54126C 12.298 1.18478 12.4133 0.891207 12.644 0.660542C 12.8956 0.429876 13.1892 0.314544 13.5247 0.314544C 13.8811 0.314544 14.1747 0.429876 14.4053 0.660542C 14.636 0.891207 14.7513 1.18478 14.7513 1.54126L 14.7513 17.8346Z"/>
<path id="path2_fill" d="M 35.2351 0C 37.6046 0 39.7433 0.545209 41.6515 1.63563C 43.5806 2.72604 45.0798 4.22537 46.1492 6.1336C 47.2396 8.04183 47.7847 10.1912 47.7847 12.5817C 47.7847 14.9723 47.2396 17.1321 46.1492 19.0613C 45.0798 20.9696 43.5806 22.4689 41.6515 23.5593C 39.7433 24.6497 37.6046 25.1949 35.2351 25.1949C 32.8447 25.1949 30.6954 24.6497 28.7873 23.5593C 26.8792 22.4689 25.3799 20.9696 24.2896 19.0613C 23.2202 17.1321 22.6855 14.9723 22.6855 12.5817C 22.6855 10.1912 23.2202 8.04183 24.2896 6.1336C 25.3799 4.22537 26.8792 2.72604 28.7873 1.63563C 30.6954 0.545209 32.8447 0 35.2351 0ZM 35.2351 2.32762C 33.306 2.32762 31.5656 2.77847 30.014 3.68016C 28.4833 4.58185 27.2776 5.81906 26.3969 7.39178C 25.5162 8.94352 25.0759 10.6735 25.0759 12.5817C 25.0759 14.5109 25.5162 16.2619 26.3969 17.8346C 27.2776 19.3864 28.4833 20.6131 30.014 21.5148C 31.5656 22.4165 33.306 22.8673 35.2351 22.8673C 37.1432 22.8673 38.8627 22.4165 40.3934 21.5148C 41.945 20.6131 43.1612 19.3864 44.0419 17.8346C 44.9225 16.2619 45.3629 14.5109 45.3629 12.5817C 45.3629 10.6735 44.9225 8.94352 44.0419 7.39178C 43.1612 5.81906 41.945 4.58185 40.3934 3.68016C 38.8627 2.77847 37.1432 2.32762 35.2351 2.32762Z"/>
<path id="path3_fill" d="M 71.0251 22.9931C 71.2138 23.3077 71.3082 23.5908 71.3082 23.8424C 71.3082 24.157 71.1928 24.4086 70.9622 24.5973C 70.7315 24.786 70.4275 24.8804 70.05 24.8804C 69.7984 24.8804 69.5887 24.828 69.421 24.7231C 69.2533 24.6183 69.1065 24.461 68.9807 24.2513L 63.3192 15.2554L 58.1295 15.2554L 58.1295 23.6537C 58.1295 24.0102 58.0142 24.3037 57.7835 24.5344C 57.5528 24.7651 57.2593 24.8804 56.9028 24.8804C 56.5464 24.8804 56.2528 24.7651 56.0221 24.5344C 55.7915 24.3037 55.6762 24.0102 55.6762 23.6537L 55.6762 1.54126C 55.6762 1.18478 55.7915 0.891207 56.0221 0.660542C 56.2528 0.429876 56.5464 0.314544 56.9028 0.314544L 62.7845 0.314544C 64.3152 0.314544 65.6781 0.639572 66.8733 1.28963C 68.0685 1.91872 69.0016 2.80992 69.6726 3.96325C 70.3646 5.11658 70.7106 6.42718 70.7106 7.89505C 70.7106 9.5097 70.2702 10.9251 69.3895 12.1414C 68.5298 13.3576 67.3556 14.2279 65.8668 14.7521L 71.0251 22.9931ZM 62.7845 12.8963C 63.8329 12.8963 64.7765 12.6866 65.6152 12.2672C 66.4749 11.8268 67.1354 11.2292 67.5967 10.4743C 68.079 9.7194 68.3202 8.85965 68.3202 7.89505C 68.3202 6.88851 68.079 5.98681 67.5967 5.18997C 67.1354 4.39313 66.4854 3.77452 65.6467 3.33416C 64.8079 2.8938 63.8539 2.67362 62.7845 2.67362L 58.1295 2.67362L 58.1295 12.8963L 62.7845 12.8963Z"/>
<path id="path4_fill" d="M 9.21699 29.4634C 11.5864 29.4634 13.7042 29.9876 15.5704 31.0361C 17.4366 32.0845 18.8834 33.5419 19.9109 35.4082C 20.9593 37.2536 21.4835 39.361 21.4835 41.7306C 21.4835 44.1001 20.9593 46.218 19.9109 48.0843C 18.8834 49.9506 17.4366 51.408 15.5704 52.4565C 13.7042 53.505 11.5864 54.0292 9.21699 54.0292L 3.55551 54.0292C 3.19904 54.0292 2.90548 53.9139 2.67483 53.6832C 2.44418 53.4525 2.32885 53.159 2.32885 52.8025L 2.32885 30.6901C 2.32885 30.3336 2.44418 30.04 2.67483 29.8094C 2.90548 29.5787 3.19904 29.4634 3.55551 29.4634L 9.21699 29.4634ZM 9.21699 51.8274C 11.1251 51.8274 12.8236 51.3975 14.3123 50.5378C 15.8011 49.6571 16.9648 48.4513 17.8036 46.9205C 18.6423 45.3897 19.0617 43.6598 19.0617 41.7306C 19.0617 39.8014 18.6423 38.0714 17.8036 36.5406C 16.9648 35.0098 15.8011 33.8145 14.3123 32.9548C 12.8236 32.095 11.1251 31.6652 9.21699 31.6652L 4.78216 31.6652L 4.78216 51.8274L 9.21699 51.8274Z"/>
<path id="path5_fill" d="M 47.1804 52.2992C 47.2643 52.446 47.3062 52.6138 47.3062 52.8025C 47.3062 53.138 47.1804 53.4316 46.9288 53.6832C 46.6981 53.9139 46.415 54.0292 46.0795 54.0292C 45.5344 54.0292 45.1464 53.7776 44.9158 53.2743L 42.8085 48.1787L 30.6363 48.1787L 28.5289 53.2743C 28.3612 53.7776 27.9838 54.0292 27.3966 54.0292C 27.0402 54.0292 26.7466 53.9139 26.516 53.6832C 26.3063 53.4316 26.2014 53.138 26.2014 52.8025C 26.2014 52.5928 26.2329 52.4146 26.2958 52.2678L 35.5429 30.3126C 35.7735 29.7464 36.1719 29.4634 36.7381 29.4634C 37.3042 29.4634 37.6922 29.7464 37.9018 30.3126L 47.1804 52.2992ZM 41.9592 46.0713L 36.7381 33.4581L 31.5169 46.0713L 41.9592 46.0713Z"/>
<path id="path6_fill" d="M 61.2437 29.1488C 62.9002 29.1488 64.3575 29.5158 65.6156 30.2497C 66.8737 30.9836 67.8592 31.9378 68.5721 33.1121C 68.7189 33.3427 68.7923 33.5944 68.7923 33.867C 68.7923 34.2654 68.6036 34.5799 68.2262 34.8106C 68.0584 34.8945 67.8697 34.9364 67.66 34.9364C 67.4294 34.9364 67.2092 34.884 66.9995 34.7791C 66.8108 34.6533 66.6535 34.4856 66.5277 34.2759C 65.3535 32.4305 63.5816 31.4974 61.2122 31.4764C 59.5138 31.4764 58.1718 31.8329 57.1863 32.5459C 56.2008 33.2588 55.708 34.2759 55.708 35.597C 55.708 38.0504 57.6895 39.5392 61.6526 40.0635C 64.2526 40.4409 66.1922 41.2378 67.4713 42.454C 68.7504 43.6702 69.3899 45.2744 69.3899 47.2665C 69.3899 48.7344 69.0334 50.0031 68.3205 51.0725C 67.6076 52.142 66.6326 52.9598 65.3954 53.5259C 64.1583 54.0711 62.7744 54.3438 61.2437 54.3438C 59.2517 54.3438 57.4798 53.9244 55.9282 53.0856C 54.3975 52.2258 53.2966 51.0725 52.6256 49.6256C 52.5418 49.4788 52.4998 49.3111 52.4998 49.1223C 52.4998 48.8288 52.6047 48.5876 52.8144 48.3989C 53.045 48.1892 53.349 48.0843 53.7265 48.0843C 53.9781 48.0843 54.2088 48.1577 54.4184 48.3045C 54.6491 48.4303 54.8168 48.6191 54.9217 48.8707C 55.404 49.8143 56.2008 50.5797 57.3121 51.1669C 58.4444 51.733 59.7549 52.0161 61.2437 52.0161C 62.9631 52.0161 64.347 51.6072 65.3954 50.7894C 66.4438 49.9506 66.9681 48.7868 66.9681 47.298C 66.9681 45.9769 66.4753 44.8655 65.4898 43.9638C 64.5252 43.0621 63.0679 42.4855 61.1179 42.2338C 58.6855 41.9403 56.7669 41.1853 55.362 39.9691C 53.9781 38.7319 53.2861 37.2221 53.2861 35.4397C 53.2861 34.1815 53.6216 33.0806 54.2926 32.137C 54.9846 31.1724 55.9282 30.4384 57.1234 29.9352C 58.3395 29.4109 59.713 29.1488 61.2437 29.1488Z"/>
</defs>
</svg>
